<svg width="34" height="34" viewBox="0 0 34 34" fill="none" xmlns="http://www.w3.org/2000/svg">
<path d="M17 14.875C18.1736 14.875 19.125 13.9236 19.125 12.75C19.125 11.5764 18.1736 10.625 17 10.625C15.8264 10.625 14.875 11.5764 14.875 12.75C14.875 13.9236 15.8264 14.875 17 14.875Z" fill="#3B823E"/>
<path d="M17 2.125C11.1416 2.125 6.375 6.68379 6.375 12.2852C6.375 14.9527 7.5909 18.5001 9.98883 22.8291C11.9146 26.3048 14.1425 29.4479 15.3013 31.0117C15.4971 31.2789 15.7532 31.4962 16.0486 31.646C16.3441 31.7958 16.6707 31.8739 17.002 31.8739C17.3333 31.8739 17.6599 31.7958 17.9554 31.646C18.2508 31.4962 18.5068 31.2789 18.7027 31.0117C19.8595 29.4479 22.0894 26.3048 24.0152 22.8291C26.4091 18.5014 27.625 14.954 27.625 12.2852C27.625 6.68379 22.8584 2.125 17 2.125ZM17 17C16.1594 17 15.3377 16.7507 14.6388 16.2837C13.9399 15.8168 13.3952 15.153 13.0735 14.3764C12.7518 13.5998 12.6677 12.7453 12.8317 11.9209C12.9956 11.0964 13.4004 10.3392 13.9948 9.7448C14.5892 9.15042 15.3464 8.74565 16.1709 8.58166C16.9953 8.41768 17.8498 8.50184 18.6264 8.82351C19.403 9.14518 20.0667 9.68992 20.5337 10.3888C21.0007 11.0877 21.25 11.9094 21.25 12.75C21.2488 13.8768 20.8006 14.9571 20.0038 15.7538C19.2071 16.5506 18.1268 16.9988 17 17Z" fill="#3B823E"/>
</svg>
