<svg width="29" height="29" viewBox="0 0 29 29" fill="none" xmlns="http://www.w3.org/2000/svg">
<path d="M8.4585 8.45837H7.25016C6.60922 8.45837 5.99453 8.71299 5.54132 9.1662C5.08811 9.61941 4.8335 10.2341 4.8335 10.875V21.75C4.8335 22.391 5.08811 23.0057 5.54132 23.4589C5.99453 23.9121 6.60922 24.1667 7.25016 24.1667H18.1252C18.7661 24.1667 19.3808 23.9121 19.834 23.4589C20.2872 23.0057 20.5418 22.391 20.5418 21.75V20.5417" stroke="#3B823E" stroke-width="2.41667" stroke-linecap="round" stroke-linejoin="round"/>
<path d="M19.3333 6.04167L22.9583 9.66667M24.6319 7.95688C25.1078 7.48098 25.3751 6.83553 25.3751 6.16251C25.3751 5.48949 25.1078 4.84403 24.6319 4.36813C24.156 3.89223 23.5105 3.62488 22.8375 3.62488C22.1645 3.62488 21.519 3.89223 21.0431 4.36813L10.875 14.5V18.125H14.5L24.6319 7.95688Z" stroke="#3B823E" stroke-width="2.41667" stroke-linecap="round" stroke-linejoin="round"/>
</svg>
