<svg width="100" height="100" viewBox="0 0 100 100" fill="none" xmlns="http://www.w3.org/2000/svg">
<path d="M36.3624 28.0292L53.8194 45.4861L71.2763 62.9431L41.3736 75.3889L11.4722 87.8333L23.9166 57.9319L36.3624 28.0292Z" fill="#F1B31C"/>
<path d="M55.5555 48.6111L35.6833 28.7069L22.7652 59.0819L9.84717 89.4569L55.5555 48.6111Z" fill="#FCEA2B"/>
<path d="M21.1443 62.8958L36.5082 78.2597L28.8262 81.3861L17.9971 70.557L21.1443 62.8958Z" fill="#EA5A47"/>
<path d="M24.0874 76.7333L28.8263 81.3861L36.5082 78.2597L29.8402 71.5917L24.0874 76.7333Z" fill="#D22F27"/>
<path d="M28.896 44.6708L38.196 53.9708L54.4446 70.2194L45.7321 74.1972L34.3835 62.8472L25.2085 53.6736L28.896 44.6708Z" fill="#EA5A47"/>
<path d="M36.8569 65.3208L45.7319 74.1972L54.4444 70.2195L43.5583 59.3333L36.8569 65.3208Z" fill="#D22F27"/>
<path d="M42.0766 22.818C43.6107 22.818 44.8544 21.5924 44.8544 20.0805C44.8544 18.5687 43.6107 17.343 42.0766 17.343C40.5425 17.343 39.2988 18.5687 39.2988 20.0805C39.2988 21.5924 40.5425 22.818 42.0766 22.818Z" fill="#8967AA"/>
<path d="M83.7431 28.3736C85.2772 28.3736 86.5209 27.148 86.5209 25.6361C86.5209 24.1242 85.2772 22.8986 83.7431 22.8986C82.209 22.8986 80.9653 24.1242 80.9653 25.6361C80.9653 27.148 82.209 28.3736 83.7431 28.3736Z" fill="#F1B31C"/>
<path d="M79.5766 57.5403C81.1107 57.5403 82.3544 56.3147 82.3544 54.8028C82.3544 53.2909 81.1107 52.0653 79.5766 52.0653C78.0425 52.0653 76.7988 53.2909 76.7988 54.8028C76.7988 56.3147 78.0425 57.5403 79.5766 57.5403Z" fill="#D22F27"/>
<path d="M70.3652 63.3875L70.5986 63.6222L40.2236 76.5403L9.84717 89.4583L22.7652 59.0819L35.6833 28.7069" stroke="black" stroke-width="2.77778" stroke-miterlimit="10" stroke-linecap="round" stroke-linejoin="round"/>
<path d="M70.365 63.3875L53.1414 46.1639L35.8345 28.8583L35.6831 28.7069M64.5692 10.2319C64.8956 10.8555 65.1289 11.5417 65.2498 12.2778C65.8762 16.093 63.2401 19.7972 59.3623 20.5514" stroke="black" stroke-width="2.77778" stroke-miterlimit="10" stroke-linecap="round" stroke-linejoin="round"/>
<path d="M59.6293 20.5222C58.9077 20.5776 58.1997 20.7483 57.5321 21.0278C53.9641 22.5167 52.2169 26.7125 53.6294 30.4028M85.8238 37.1069C85.6819 37.816 85.4272 38.4978 85.0696 39.1264C83.1641 42.4917 78.7877 43.7236 75.296 41.8764" stroke="black" stroke-width="2.77778" stroke-miterlimit="10" stroke-linecap="round" stroke-linejoin="round"/>
<path d="M75.5208 42.0222C74.9242 41.6131 74.2658 41.3022 73.5708 41.1014C69.8583 40.0208 65.8639 42.1944 64.6514 45.9528" stroke="black" stroke-width="2.77778" stroke-miterlimit="10" stroke-linecap="round" stroke-linejoin="round"/>
</svg>
