<svg width="94" height="20" viewBox="0 0 94 20" fill="none" xmlns="http://www.w3.org/2000/svg">
<g clip-path="url(#clip0_206_1247)">
<path d="M24.775 7.45624C25.0863 6.28541 24.9577 5.38957 24.3889 4.76874C23.8202 4.14791 22.8259 3.83541 21.4063 3.83124H15.966L12.6864 16.1833H15.3204L16.6467 11.1833H18.3861C18.7044 11.1673 19.0215 11.2325 19.3077 11.3729C19.4239 11.4459 19.5208 11.5459 19.5902 11.6645C19.6596 11.7831 19.6994 11.9168 19.7063 12.0542L20.1816 16.1833H23.0045L22.5437 12.3479C22.4524 11.4916 22.0601 10.9875 21.3793 10.8354C22.203 10.6073 22.9547 10.1712 23.5629 9.56875C24.1505 8.98809 24.5696 8.25781 24.775 7.45624ZM22.2531 7.49999C22.1396 8.00642 21.8305 8.44695 21.3938 8.72499C20.9786 8.98749 20.3726 9.11666 19.6025 9.11666H17.1574L18.0167 5.88957H20.4639C21.2319 5.88957 21.7592 6.02083 22.0497 6.28124C22.3402 6.54166 22.4026 6.95416 22.2531 7.49999Z" fill="#0C2651"/>
<path d="M32.3802 7.35422L32.0459 8.60422C31.9067 8.15749 31.612 7.77592 31.2157 7.52922C30.7534 7.25075 30.2205 7.11322 29.6818 7.13339C28.926 7.13359 28.1833 7.33179 27.5273 7.70839C26.8132 8.11943 26.1964 8.68093 25.7194 9.35422C25.1936 10.0822 24.8086 10.9026 24.584 11.7729C24.3484 12.5476 24.2986 13.3671 24.4387 14.1646C24.5456 14.7946 24.8814 15.3624 25.381 15.7584C25.9242 16.1482 26.5822 16.3434 27.2492 16.3126C27.8448 16.3139 28.4336 16.1859 28.9753 15.9375C29.517 15.6889 29.9987 15.3258 30.3875 14.8729L30.043 16.1772H32.6105L34.9518 7.35422H32.3802ZM31.2137 11.7293C31.0548 12.4476 30.7014 13.1081 30.1924 13.6376C29.9732 13.8529 29.7135 14.0224 29.4284 14.1362C29.1433 14.2498 28.8386 14.3056 28.5319 14.3001C27.8781 14.3001 27.438 14.0917 27.2013 13.6479C26.9648 13.2043 26.9585 12.5855 27.1745 11.7729C27.3386 11.0482 27.6975 10.3824 28.2122 9.84798C28.4322 9.62611 28.6939 9.45049 28.9823 9.33138C29.2706 9.21226 29.5796 9.15203 29.8914 9.15422C30.5307 9.15422 30.9666 9.37714 31.1908 9.82089C31.415 10.2646 31.4378 10.8917 31.2178 11.7272L31.2137 11.7293Z" fill="#0C2651"/>
<path d="M44.1118 7.36048H36.7162L36.1703 9.41881H40.4752L34.8149 14.3751L34.3313 16.1938H41.9697L42.5156 14.1355H37.8972L43.651 9.10839L44.1118 7.36048Z" fill="#0C2651"/>
<path d="M52.2006 7.68335C51.5138 7.28945 50.7305 7.09741 49.9402 7.12919C49.0487 7.12144 48.1665 7.31063 47.356 7.68335C46.5677 8.05229 45.8751 8.59918 45.3323 9.28128C44.7652 9.99677 44.3557 10.8246 44.1304 11.7105C43.8882 12.4982 43.8582 13.3363 44.0432 14.1396C44.2131 14.8063 44.6353 15.3803 45.2201 15.7396C45.8152 16.1077 46.5762 16.2917 47.5033 16.2917C48.3853 16.2995 49.2579 16.1109 50.0585 15.7396C50.8444 15.3706 51.5337 14.8228 52.0719 14.1396C52.64 13.4246 53.0503 12.5966 53.2758 11.7105C53.5185 10.9227 53.5478 10.0842 53.3609 9.28128C53.1974 8.61672 52.7808 8.04301 52.2006 7.68335ZM50.7019 11.7062C50.4716 12.5729 50.1332 13.2229 49.6765 13.6521C49.2359 14.0735 48.6474 14.3033 48.0388 14.2917C46.6967 14.2917 46.2545 13.4299 46.7125 11.7062C46.9381 10.8507 47.2841 10.2056 47.7504 9.77085C48.1967 9.34237 48.7934 9.10802 49.4109 9.11878C50.0502 9.11878 50.4861 9.32711 50.7102 9.77085C50.9345 10.2146 50.9282 10.85 50.7019 11.7062Z" fill="#0C2651"/>
<path d="M80.1594 7.35419L79.8252 8.60419C79.686 8.15746 79.3913 7.77589 78.995 7.52919C78.5335 7.2482 78.0005 7.10846 77.4611 7.12711C76.704 7.12876 75.9605 7.32913 75.3045 7.70836C74.5898 8.11931 73.9723 8.68081 73.4945 9.35419C72.9696 10.0826 72.5846 10.9029 72.3591 11.7729C72.1257 12.5479 72.0758 13.3669 72.2139 14.1646C72.3208 14.7946 72.6565 15.3624 73.1562 15.7584C73.7065 16.1514 74.3727 16.3466 75.0471 16.3126C75.6294 16.3104 76.2046 16.1839 76.7346 15.9417C77.2815 15.6954 77.767 15.3304 78.1564 14.8729L77.8119 16.1771H80.3794L82.7228 7.35419H80.1594ZM78.9867 11.7292C78.8286 12.4474 78.476 13.1078 77.9675 13.6376C77.7479 13.8522 77.4881 14.0212 77.2031 14.135C76.9182 14.2487 76.6136 14.3048 76.307 14.3C75.6511 14.3 75.2111 14.0917 74.9745 13.6479C74.7378 13.2042 74.7337 12.5855 74.9474 11.7729C75.1125 11.0485 75.4713 10.3829 75.9853 9.84794C76.2057 9.62621 76.4679 9.45069 76.7565 9.33159C77.0451 9.21249 77.3545 9.15219 77.6665 9.15419C78.3058 9.15419 78.739 9.37641 78.966 9.82085C79.2067 10.2521 79.2129 10.8917 78.9867 11.7271V11.7292Z" fill="#0C2651"/>
<path d="M61.3395 9.72923L61.9954 7.32716C61.7188 7.20147 61.4167 7.14226 61.1132 7.15423C60.5199 7.15491 59.9368 7.30842 59.4195 7.60007C58.9478 7.85946 58.5384 8.21926 58.2198 8.65423L58.5581 7.36049H55.9926L53.6305 16.1834H56.2333L57.456 11.5771C57.5992 10.9625 57.9345 10.4099 58.4128 10.0001C58.9047 9.61442 59.5159 9.41458 60.1397 9.43549C60.5576 9.43373 60.9694 9.53458 61.3395 9.72923Z" fill="#0C2651"/>
<path d="M70.4101 7.7271C69.879 7.31973 69.2222 7.11253 68.5545 7.14169C67.9048 7.14242 67.2644 7.29808 66.6864 7.59585C66.1072 7.88172 65.6079 8.3077 65.2335 8.83543L65.2439 8.77502L65.6818 7.36043H63.1288L62.477 9.81252C62.477 9.8396 62.4625 9.86876 62.4563 9.89585L59.7787 20H62.394L63.7452 14.9084C63.8744 15.3576 64.172 15.7391 64.5755 15.9729C65.0438 16.2429 65.578 16.3758 66.1177 16.3562C66.8758 16.3584 67.6224 16.1692 68.2888 15.8062C68.9981 15.4139 69.6103 14.8664 70.0802 14.2041C70.5969 13.4799 70.9749 12.6652 71.1947 11.8021C71.4319 11.0159 71.486 10.1855 71.3525 9.37502C71.2432 8.73084 70.9092 8.1467 70.4101 7.7271ZM68.5608 11.7605C68.4012 12.4675 68.05 13.1164 67.5457 13.6355C67.0995 14.0638 66.5026 14.2975 65.8852 14.2855C65.2418 14.2855 64.8059 14.0625 64.5755 13.6229C64.3451 13.1834 64.3326 12.55 64.5589 11.7146C64.7206 10.9907 65.08 10.3263 65.5968 9.79585C65.8162 9.58066 66.0759 9.41102 66.3608 9.29663C66.6458 9.18224 66.9504 9.12534 67.2572 9.12919C67.88 9.12919 68.3137 9.36252 68.54 9.82293C68.7662 10.2834 68.7807 10.9354 68.5608 11.7605Z" fill="#0C2651"/>
<path d="M93.6407 7.0667H90.9423L90.5273 7.93753C90.4941 7.98127 90.4629 8.02503 90.4256 8.0792L90.3819 8.15003L87.0609 12.8125L86.3718 7.36044H83.6486L85.033 15.7229L81.9715 20H84.5929L85.3506 18.9146C85.3735 18.8813 85.3963 18.8542 85.417 18.8188L86.3033 17.55L86.3323 17.5167L90.2906 11.8479L93.6407 7.0667Z" fill="#0C2651"/>
<path d="M6.01946 5.24164L5.23071 8.12498L9.68091 5.22706L6.775 16.1833H9.72449L14.019 -2.67029e-05L6.01946 5.24164Z" fill="#3395FF"/>
<path d="M1.22463 11.575L0 16.1834H6.05051L8.52676 6.80835L1.22463 11.575Z" fill="#0C2651"/>
</g>
<defs>
<clipPath id="clip0_206_1247">
<rect width="93.75" height="20" fill="white"/>
</clipPath>
</defs>
</svg>
