<svg width="240" height="33" viewBox="0 0 240 33" fill="none" xmlns="http://www.w3.org/2000/svg">
<path d="M44 29.2904C44 30.2402 43.2727 31 42.3636 31H1.63636C0.727271 31 0 30.2402 0 29.2904V3.70961C0 2.75983 0.727271 2 1.63636 2H42.3636C43.2727 2 44 2.75983 44 3.70961V29.2904Z" fill="white"/>
<path d="M16.7273 10.4214L11.8182 22.6419H8.60608L6.18183 12.8908C6.06062 12.321 5.8788 12.0677 5.45456 11.8144C4.72729 11.4345 3.51517 10.9913 2.48486 10.8013L2.54547 10.4214H7.69698C8.36365 10.4214 8.96971 10.8646 9.09093 11.6878L10.3637 18.7795L13.5152 10.4847H16.7273V10.4214ZM29.2727 18.6528C29.2727 15.4236 25.0303 15.2336 25.0303 13.8406C25.0303 13.3974 25.4546 12.9542 26.303 12.8275C26.7273 12.7642 27.9394 12.7009 29.2727 13.3974L29.8182 10.8013C29.0909 10.548 28.1818 10.2314 26.9697 10.2314C24 10.2314 21.8788 11.8777 21.8788 14.2838C21.8788 16.0568 23.394 17.0066 24.5455 17.5764C25.697 18.1463 26.1212 18.5262 26.1212 19.0961C26.1212 19.9192 25.2121 20.2991 24.303 20.2991C22.7879 20.2991 21.8788 19.8559 21.2121 19.5393L20.6667 22.1987C21.394 22.5153 22.6667 22.8319 24 22.8319C27.1515 22.8319 29.2121 21.1856 29.2727 18.6528ZM37.1515 22.6419H39.9394L37.5152 10.4214H34.9091C34.303 10.4214 33.8182 10.8013 33.6364 11.3079L29.0909 22.6419H32.2424L32.8485 20.8057H36.7273L37.1515 22.6419ZM33.7576 18.3363L35.3334 13.7773L36.2424 18.3363H33.7576ZM21.0303 10.4214L18.5455 22.6419H15.5152L18 10.4214H21.0303Z" fill="#1A1F71"/>
<path d="M90.9017 7.85217H81.1924V25.1486H90.9017V7.85217Z" fill="#FF5F00"/>
<path d="M81.8087 16.4996C81.8071 14.8339 82.1879 13.1896 82.9222 11.6913C83.6564 10.193 84.7249 8.87987 86.0468 7.85144C84.4099 6.57594 82.4439 5.78272 80.3738 5.56246C78.3036 5.34219 76.2126 5.70375 74.3399 6.60583C72.4672 7.50791 70.8883 8.91411 69.7837 10.6637C68.679 12.4133 68.0933 14.4356 68.0933 16.4996C68.0933 18.5636 68.679 20.586 69.7837 22.3356C70.8883 24.0852 72.4672 25.4914 74.3399 26.3934C76.2126 27.2955 78.3036 27.6571 80.3738 27.4368C82.4439 27.2166 84.4099 26.4233 86.0468 25.1478C84.7249 24.1194 83.6564 22.8063 82.9222 21.308C82.1879 19.8097 81.8071 18.1654 81.8087 16.4996Z" fill="#EB001B"/>
<path d="M104 16.4996C104 18.5636 103.414 20.586 102.31 22.3355C101.205 24.0851 99.6265 25.4913 97.7538 26.3934C95.8811 27.2955 93.7902 27.6571 91.7201 27.4368C89.6499 27.2165 87.684 26.4233 86.0471 25.1478C87.3678 24.1184 88.4355 22.8051 89.1696 21.307C89.9038 19.8089 90.2852 18.1651 90.2852 16.4996C90.2852 14.8341 89.9038 13.1904 89.1696 11.6923C88.4355 10.1942 87.3678 8.88091 86.0471 7.85144C87.684 6.57593 89.6499 5.78272 91.7201 5.56245C93.7902 5.34219 95.8811 5.70377 97.7538 6.60586C99.6265 7.50794 101.205 8.91414 102.31 10.6637C103.414 12.4133 104 14.4357 104 16.4996Z" fill="#F79E1B"/>
<path d="M102.941 23.3184V22.9643H103.085V22.8922H102.719V22.9643H102.863V23.3184H102.941ZM103.653 23.3184V22.8915H103.541L103.412 23.1851L103.282 22.8915H103.17V23.3184H103.249V22.9964L103.371 23.274H103.453L103.574 22.9957V23.3184H103.653Z" fill="#F79E1B"/>
<path d="M155.085 8.09434L156.175 5.21462H161V0H128V33H161V27.7854H156.408L154.696 25.7618L152.983 27.7075H140.064V17.3561H135.783L141.153 5.29245H146.368L147.613 8.01651V5.29245H154.073L155.085 8.09434ZM151.505 10.0401V8.87264L151.972 10.0401L154.151 15.7995H156.175L158.354 10.0401L158.743 8.87264V15.7217H161V6.92689H157.264L155.552 11.3632L155.085 12.6085L154.618 11.3632L152.906 6.92689H149.17V15.6439H151.505V10.0401ZM146.679 15.6439H149.248L145.356 6.84906H142.321L138.429 15.6439H140.998L141.698 13.9316H145.979L146.679 15.6439ZM143.41 9.88443L143.877 8.79481L144.344 9.88443L145.278 12.1415H142.554L143.41 9.88443ZM141.854 17.3561V26.1509H149.17V24.2052H144.033V22.6486H149.014V20.7807H144.033V19.2241H149.17V17.3561H141.854ZM157.42 25.9953H160.3L156.175 21.6368L160.3 17.2783H157.42L154.774 20.158L152.127 17.2783H149.17L153.295 21.7146L149.17 26.0731H151.972L154.618 23.1934L157.42 25.9953ZM158.509 21.7146L161 24.283V19.2241L158.509 21.7146Z" fill="#006FCF"/>
<g clip-path="url(#clip0_206_164)">
<path d="M240 2H185V31H240V2Z" fill="white"/>
<path d="M234.525 11.1029L237.326 16.4974L231.437 21.896L234.525 11.1029Z" fill="#088C45"/>
<path d="M232.585 11.1029L235.382 16.4974L229.498 21.896L232.585 11.1029Z" fill="#F37A21"/>
<path d="M192.224 14.368H193.584C194.061 14.368 194.412 14.3022 194.629 14.1652C194.867 14.0028 195.037 13.7499 195.104 13.459C195.202 13.1167 195.178 12.879 195.037 12.7434C194.897 12.6078 194.56 12.5394 194.029 12.5394H192.748L192.224 14.368ZM187.674 19.9317L190.467 10.1724H194.931C196.331 10.1724 197.258 10.3872 197.731 10.8289C198.205 11.2706 198.293 11.9822 198.009 12.9864C197.86 13.5377 197.589 14.0439 197.218 14.4633C196.825 14.8843 196.346 15.2056 195.818 15.4031C196.307 15.5172 196.619 15.7441 196.759 16.0851C196.899 16.4262 196.886 16.9202 196.713 17.5714L196.373 18.9341V18.9704C196.275 19.353 196.304 19.5571 196.463 19.5732L196.36 19.9344H193.34C193.351 19.7048 193.37 19.4994 193.39 19.3275C193.405 19.1914 193.43 19.0568 193.465 18.9247L193.747 17.95C193.889 17.4425 193.898 17.0894 193.766 16.8867C193.633 16.6839 193.335 16.5738 192.865 16.5738H191.592L190.625 19.9384L187.674 19.9317Z" fill="#28387D"/>
<path d="M206.302 12.73L204.242 19.9317H201.741L202.049 18.8777C201.652 19.267 201.198 19.5845 200.703 19.8175C200.253 20.0238 199.767 20.129 199.276 20.1263C198.914 20.1375 198.553 20.0636 198.222 19.9102C197.942 19.775 197.713 19.5454 197.571 19.2577C197.434 18.9666 197.378 18.641 197.408 18.3179C197.431 17.9513 197.565 17.3324 197.813 16.4651L198.877 12.73H201.615L200.549 16.4503C200.394 16.9941 200.355 17.3767 200.433 17.5861C200.511 17.7956 200.722 17.9043 201.07 17.9043C201.231 17.9083 201.392 17.8777 201.543 17.8145C201.693 17.7513 201.829 17.6567 201.944 17.5365C202.219 17.2276 202.416 16.8502 202.515 16.4396L203.571 12.73H206.302Z" fill="#28387D"/>
<path d="M209.837 14.5614H210.802C211.426 14.5614 211.863 14.4862 212.121 14.3425C212.388 14.1678 212.58 13.889 212.654 13.5665C212.762 13.1933 212.734 12.9315 212.571 12.7851C212.408 12.6388 212.014 12.5663 211.372 12.5663H210.41L209.837 14.5614ZM205.309 19.9317L208.099 10.1724H211.937C212.597 10.1532 213.257 10.204 213.907 10.3241C214.308 10.395 214.686 10.5668 215.011 10.8249C215.342 11.114 215.567 11.5156 215.647 11.9608C215.729 12.4146 215.68 12.9422 215.503 13.5625C215.19 14.6535 214.643 15.4909 213.862 16.0745C213.078 16.6504 212.11 16.9404 210.953 16.9404H209.156L208.299 19.9317H205.309Z" fill="#28387D"/>
<path d="M219.388 16.7162C219.015 16.8528 218.635 16.9666 218.25 17.0573C217.512 17.2493 217.097 17.5057 217.008 17.8225C216.975 17.9009 216.964 17.9875 216.976 18.0723C216.988 18.157 217.022 18.2366 217.074 18.3018C217.174 18.4146 217.351 18.4724 217.598 18.4724C217.986 18.493 218.37 18.3763 218.689 18.1407C218.961 17.9179 219.165 17.5688 219.308 17.0855C219.333 16.9834 219.356 16.9096 219.369 16.8545L219.388 16.7162ZM218.722 19.9385L218.75 19.2551C218.339 19.5609 217.889 19.8016 217.412 19.9693C216.949 20.1261 216.465 20.2045 215.978 20.2016C215.203 20.2016 214.662 19.9975 214.35 19.6015C214.038 19.2054 213.99 18.6362 214.201 17.9112C214.412 17.1862 214.761 16.6679 215.278 16.3309C215.795 15.9939 216.652 15.7455 217.857 15.5898C218.01 15.5656 218.215 15.5468 218.472 15.516C219.364 15.4166 219.864 15.1857 219.971 14.8098C220.028 14.6043 219.994 14.4526 219.861 14.3587C219.729 14.2647 219.497 14.215 219.154 14.215C218.909 14.2043 218.667 14.2652 218.453 14.3909C218.26 14.5157 218.111 14.7046 218.031 14.9279H215.357C215.471 14.5328 215.661 14.1664 215.914 13.8513C216.167 13.5362 216.479 13.2789 216.83 13.0953C217.566 12.6791 218.537 12.4777 219.739 12.4777C220.25 12.4705 220.76 12.5254 221.259 12.6415C221.617 12.7079 221.955 12.8589 222.249 13.0832C222.488 13.2749 222.652 13.5532 222.708 13.8646C222.759 14.1532 222.708 14.5668 222.548 15.1092L221.402 19.1235C221.366 19.2381 221.357 19.3603 221.376 19.4793C221.397 19.5793 221.451 19.6682 221.528 19.7304L221.467 19.9331L218.722 19.9385Z" fill="#28387D"/>
<path d="M221.491 22.7699L222.098 20.6378H222.881C223.093 20.6507 223.305 20.6044 223.495 20.5036C223.65 20.394 223.76 20.2259 223.802 20.0337C223.831 19.9336 223.851 19.8306 223.86 19.7262C223.868 19.5948 223.868 19.463 223.86 19.3315L223.449 12.73H226.219L226.176 17.1001L228.595 12.73H231.164L226.886 19.8967C226.401 20.7023 226.047 21.2532 225.825 21.5495C225.642 21.8061 225.428 22.0359 225.188 22.2328C224.928 22.4463 224.63 22.6021 224.312 22.6907C223.834 22.7977 223.345 22.8428 222.856 22.8249C222.667 22.8249 222.452 22.8249 222.219 22.8088C221.986 22.7927 221.739 22.7873 221.487 22.7672" fill="#28387D"/>
</g>
<defs>
<clipPath id="clip0_206_164">
<rect width="55" height="29" fill="white" transform="translate(185 2)"/>
</clipPath>
</defs>
</svg>
