<svg width="52" height="57" viewBox="0 0 52 57" fill="none" xmlns="http://www.w3.org/2000/svg">
<path d="M19.9617 2.47752C23.1206 -0.825827 28.3971 -0.825826 31.556 2.47752L35.6903 6.80088C36.7476 7.9065 38.0989 8.68672 39.5851 9.04954L45.3964 10.4683C49.8366 11.5523 52.4749 16.1219 51.1935 20.5093L49.5165 26.2513C49.0877 27.7198 49.0877 29.2802 49.5165 30.7487L51.1935 36.4908C52.4749 40.8781 49.8366 45.4477 45.3964 46.5317L39.5851 47.9505C38.0989 48.3133 36.7476 49.0935 35.6903 50.1991L31.556 54.5225C28.3971 57.8258 23.1206 57.8258 19.9617 54.5225L15.8273 50.1991C14.7701 49.0935 13.4187 48.3133 11.9326 47.9505L6.12127 46.5317C1.68103 45.4477 -0.957223 40.8781 0.32411 36.4907L2.00109 30.7487C2.42995 29.2802 2.42995 27.7198 2.00109 26.2513L0.324109 20.5092C-0.957225 16.1219 1.68104 11.5523 6.12127 10.4683L11.9326 9.04954C13.4187 8.68672 14.7701 7.9065 15.8273 6.80088L19.9617 2.47752Z" fill="#506B52"/>
</svg>
