<svg width="26" height="26" viewBox="0 0 26 26" fill="none" xmlns="http://www.w3.org/2000/svg">
<path opacity="0.3" d="M21.6666 6.5H4.33325L12.9999 11.9058L21.6666 6.5ZM4.33325 8.66667V19.5H21.6666V8.66667L12.9999 14.0833L4.33325 8.66667Z" fill="#F8F8F8"/>
<path d="M21.6667 4.33337H4.33341C3.14175 4.33337 2.16675 5.30837 2.16675 6.50004V19.5C2.16675 20.6917 3.14175 21.6667 4.33341 21.6667H21.6667C22.8584 21.6667 23.8334 20.6917 23.8334 19.5V6.50004C23.8334 5.30837 22.8584 4.33337 21.6667 4.33337ZM21.6667 6.50004L13.0001 11.9059L4.33341 6.50004H21.6667ZM21.6667 19.5H4.33341V8.66671L13.0001 14.0834L21.6667 8.66671V19.5Z" fill="#F8F8F8"/>
</svg>
