<svg width="52" height="57" viewBox="0 0 52 57" fill="none" xmlns="http://www.w3.org/2000/svg">
<path d="M19.9616 2.47752C23.1205 -0.825827 28.397 -0.825826 31.5559 2.47752L35.6902 6.80088C36.7475 7.9065 38.0989 8.68672 39.585 9.04954L45.3963 10.4683C49.8365 11.5523 52.4748 16.1219 51.1935 20.5093L49.5165 26.2513C49.0876 27.7198 49.0876 29.2802 49.5165 30.7487L51.1935 36.4908C52.4748 40.8781 49.8365 45.4477 45.3963 46.5317L39.585 47.9505C38.0989 48.3133 36.7475 49.0935 35.6902 50.1991L31.5559 54.5225C28.397 57.8258 23.1205 57.8258 19.9616 54.5225L15.8273 50.1991C14.77 49.0935 13.4186 48.3133 11.9325 47.9505L6.12121 46.5317C1.68097 45.4477 -0.957285 40.8781 0.324049 36.4907L2.00103 30.7487C2.42989 29.2802 2.42989 27.7198 2.00103 26.2513L0.324047 20.5092C-0.957286 16.1219 1.68097 11.5523 6.12121 10.4683L11.9325 9.04954C13.4186 8.68672 14.77 7.9065 15.8273 6.80088L19.9616 2.47752Z" fill="#506B52"/>
</svg>
