<svg width="24" height="24" viewBox="0 0 24 24" fill="none" xmlns="http://www.w3.org/2000/svg">
<path d="M8.3849 0H15.5603C16.1206 0.0310726 16.6808 0.060262 17.2411 0.0941594C18.2198 0.151597 19.1812 0.320142 20.0804 0.725027C22.288 1.71794 23.4509 3.48625 23.8124 5.83129C23.8765 6.24559 23.9066 6.66507 23.9537 7.08173V16.7429C23.9396 16.8503 23.924 16.9576 23.9113 17.065C23.8492 17.5913 23.8223 18.1257 23.7164 18.6436C23.24 20.9373 21.9443 22.5667 19.7396 23.425C18.6831 23.8364 17.5702 23.9485 16.4497 23.9598C13.9102 23.9857 11.3702 24.0097 8.83028 23.996C7.58267 23.9895 6.32893 23.9843 5.10157 23.6867C3.11433 23.2042 1.63839 22.0771 0.760821 20.2165C0.220817 19.0715 0.0546262 17.8394 0.0423855 16.5914C0.0150793 13.9949 -0.0136393 11.3999 0.00707574 8.8039C0.0102674 7.71051 0.0889205 6.61865 0.242474 5.5361C0.489172 3.86053 1.29847 2.46368 2.67273 1.43263C3.84972 0.548949 5.21503 0.197735 6.65614 0.0955717C7.23192 0.0550832 7.80865 0.0315434 8.3849 0ZM12.0053 21.892V21.8553C12.6386 21.8553 13.2722 21.8742 13.9045 21.8516C15.2618 21.8045 16.6295 21.8181 17.9736 21.6501C19.8201 21.4189 21.0724 20.3596 21.5263 18.5216C21.7094 17.7792 21.773 16.9929 21.7861 16.2246C21.8276 13.8104 21.8395 11.3955 21.8219 8.97998C21.8218 8.00436 21.7631 7.02963 21.6463 6.06104C21.401 4.1303 20.1972 2.82478 18.2947 2.44485C17.4736 2.28101 16.6206 2.23158 15.7802 2.21792C13.6785 2.18261 11.576 2.18921 9.4715 2.19627C8.26909 2.20003 7.06338 2.1845 5.87179 2.394C4.05263 2.71461 2.80455 3.86948 2.43262 5.68346C2.27208 6.46545 2.21935 7.27852 2.2024 8.07934C2.16144 10.0011 2.14591 11.9248 2.16756 13.8471C2.18263 15.2049 2.21841 16.5673 2.34835 17.9181C2.47546 19.2363 3.09786 20.3267 4.25507 21.0451C5.03754 21.5305 5.91699 21.7249 6.82327 21.7574C8.55062 21.8191 10.2775 21.8478 12.0053 21.892Z" fill="white"/>
<path d="M5.82377 12.0053C5.82895 8.59674 8.60618 5.82845 12.0053 5.84258C15.4219 5.8567 18.1812 8.62875 18.1601 12.0256C18.1389 15.4355 15.3875 18.1807 11.9926 18.1775C8.58782 18.1727 5.81859 15.4026 5.82377 12.0053ZM7.99697 12.0053C7.99613 12.796 8.22985 13.5692 8.66855 14.227C9.10726 14.8848 9.73123 15.3977 10.4615 15.7008C11.1918 16.0039 11.9956 16.0836 12.7712 15.9298C13.5468 15.7759 14.2593 15.3955 14.8186 14.8366C15.3779 14.2777 15.7588 13.5654 15.9132 12.7899C16.0676 12.0145 15.9885 11.2106 15.6859 10.4801C15.3833 9.74961 14.8709 9.12528 14.2134 8.68611C13.5558 8.24694 12.7828 8.01267 11.9921 8.01295C11.4674 8.01165 10.9475 8.114 10.4624 8.31414C9.97725 8.51428 9.53643 8.80826 9.16522 9.17921C8.79401 9.55015 8.49972 9.99076 8.29924 10.4757C8.09876 10.9607 7.99604 11.4805 7.99697 12.0053Z" fill="white"/>
<path d="M18.435 4.1623C18.8118 4.17584 19.1682 4.33701 19.4273 4.61104C19.6863 4.88507 19.8272 5.24997 19.8196 5.62697C19.8119 6.00398 19.6563 6.36285 19.3863 6.62612C19.1164 6.8894 18.7537 7.03596 18.3766 7.03417C18.1861 7.03326 17.9977 6.99446 17.8223 6.92004C17.6469 6.84561 17.4881 6.73705 17.3551 6.60065C17.2221 6.46426 17.1175 6.30277 17.0475 6.12559C16.9775 5.9484 16.9435 5.75906 16.9473 5.56859C16.9512 5.37811 16.9929 5.19031 17.0701 5.01612C17.1472 4.84193 17.2583 4.68482 17.3967 4.55394C17.5352 4.42307 17.6983 4.32105 17.8765 4.25381C18.0548 4.18657 18.2446 4.15547 18.435 4.1623Z" fill="white"/>
</svg>
