<svg width="29" height="32" viewBox="0 0 29 32" fill="none" xmlns="http://www.w3.org/2000/svg">
<path d="M11.2065 1.39089C12.9799 -0.463627 15.9421 -0.463626 17.7155 1.39089L20.0366 3.81803C20.6301 4.43873 21.3888 4.87675 22.2231 5.08044L25.4856 5.87692C27.9784 6.48549 29.4595 9.05088 28.7401 11.514L27.7987 14.7376C27.5579 15.562 27.5579 16.438 27.7987 17.2624L28.7401 20.486C29.4595 22.9491 27.9784 25.5145 25.4856 26.1231L22.2231 26.9196C21.3888 27.1233 20.6301 27.5613 20.0366 28.182L17.7155 30.6091C15.9421 32.4636 12.9799 32.4636 11.2065 30.6091L8.88543 28.182C8.29188 27.5613 7.53321 27.1233 6.69889 26.9196L3.43641 26.1231C0.943641 25.5145 -0.537485 22.9491 0.18186 20.486L1.12332 17.2624C1.36409 16.438 1.36409 15.562 1.12332 14.7376L0.18186 11.514C-0.537485 9.05088 0.943643 6.48549 3.43641 5.87692L6.69889 5.08044C7.53321 4.87675 8.29188 4.43873 8.88543 3.81803L11.2065 1.39089Z" fill="#506B52"/>
</svg>
