<svg width="52" height="57" viewBox="0 0 52 57" fill="none" xmlns="http://www.w3.org/2000/svg">
<path d="M19.9616 2.47747C23.1205 -0.82589 28.397 -0.825889 31.5559 2.47747L35.6902 6.80084C36.7475 7.90645 38.0989 8.68668 39.585 9.04949L45.3963 10.4682C49.8366 11.5523 52.4748 16.1219 51.1935 20.5092L49.5165 26.2513C49.0877 27.7198 49.0877 29.2802 49.5165 30.7487L51.1935 36.4908C52.4748 40.8781 49.8366 45.4477 45.3963 46.5318L39.585 47.9505C38.0989 48.3133 36.7475 49.0935 35.6902 50.1992L31.5559 54.5225C28.397 57.8259 23.1205 57.8259 19.9616 54.5225L15.8273 50.1992C14.77 49.0935 13.4186 48.3133 11.9325 47.9505L6.12116 46.5318C1.68091 45.4477 -0.957348 40.8781 0.323988 36.4908L2.00097 30.7487C2.42983 29.2802 2.42983 27.7198 2.00097 26.2513L0.323987 20.5092C-0.95735 16.1219 1.68092 11.5523 6.12116 10.4682L11.9325 9.04949C13.4186 8.68668 14.77 7.90645 15.8273 6.80083L19.9616 2.47747Z" fill="#506B52"/>
</svg>
