<svg width="29" height="32" viewBox="0 0 29 32" fill="none" xmlns="http://www.w3.org/2000/svg">
<path d="M11.2064 1.39091C12.9798 -0.463602 15.9421 -0.463602 17.7155 1.39091L20.0365 3.81805C20.6301 4.43875 21.3888 4.87677 22.2231 5.08045L25.4855 5.87694C27.9783 6.48551 29.4594 9.05089 28.7401 11.514L27.7986 14.7376C27.5579 15.562 27.5579 16.438 27.7986 17.2624L28.7401 20.486C29.4594 22.9491 27.9783 25.5145 25.4855 26.1231L22.2231 26.9195C21.3888 27.1232 20.6301 27.5613 20.0365 28.1819L17.7155 30.6091C15.9421 32.4636 12.9798 32.4636 11.2064 30.6091L8.88542 28.1819C8.29187 27.5612 7.53319 27.1232 6.69888 26.9195L3.4364 26.1231C0.943639 25.5145 -0.537484 22.9491 0.18186 20.486L1.12332 17.2624C1.36408 16.438 1.36408 15.562 1.12332 14.7376L0.181859 11.514C-0.537485 9.05089 0.943641 6.48551 3.4364 5.87694L6.69888 5.08045C7.5332 4.87677 8.29187 4.43875 8.88542 3.81805L11.2064 1.39091Z" fill="#506B52"/>
</svg>
