<svg width="86" height="86" viewBox="0 0 86 86" fill="none" xmlns="http://www.w3.org/2000/svg">
<path d="M43 43C37.0875 43 32.026 40.8948 27.8156 36.6844C23.6052 32.474 21.5 27.4125 21.5 21.5C21.5 15.5875 23.6052 10.526 27.8156 6.31563C32.026 2.10521 37.0875 0 43 0C48.9125 0 53.974 2.10521 58.1844 6.31563C62.3948 10.526 64.5 15.5875 64.5 21.5C64.5 27.4125 62.3948 32.474 58.1844 36.6844C53.974 40.8948 48.9125 43 43 43ZM0 86V70.95C0 67.9042 0.784751 65.1056 2.35425 62.5542C3.92375 60.0029 6.00567 58.0536 8.6 56.7062C14.1542 53.9292 19.7979 51.8472 25.5312 50.4605C31.2646 49.0737 37.0875 48.3786 43 48.375C48.9125 48.375 54.7354 49.0702 60.4688 50.4605C66.2021 51.8508 71.8458 53.9328 77.4 56.7062C79.9979 58.05 82.0816 59.9993 83.6511 62.5542C85.2206 65.1092 86.0036 67.9078 86 70.95V86H0Z" fill="#666666"/>
</svg>
