<svg width="24" height="14" viewBox="0 0 24 14" fill="none" xmlns="http://www.w3.org/2000/svg">
<path d="M23.4717 13.4646C23.1334 13.8074 22.6745 14 22.1961 14C21.7176 14 21.2588 13.8074 20.9204 13.4646L11.9891 4.4136L3.05778 13.4646C2.71749 13.7977 2.26171 13.982 1.78863 13.9779C1.31554 13.9737 0.863001 13.7814 0.528467 13.4424C0.193933 13.1034 0.004179 12.6447 6.86646e-05 12.1653C-0.00404358 11.6859 0.17782 11.224 0.506491 10.8792L10.7135 0.535358C11.0518 0.192569 11.5107 0 11.9891 0C12.4675 0 12.9264 0.192569 13.2648 0.535358L23.4717 10.8792C23.81 11.222 24 11.687 24 12.1719C24 12.6567 23.81 13.1217 23.4717 13.4646Z" fill="#F8F8F8"/>
</svg>
