<svg width="28" height="28" viewBox="0 0 28 28" fill="none" xmlns="http://www.w3.org/2000/svg">
<path fill-rule="evenodd" clip-rule="evenodd" d="M0 14C0 10.287 1.475 6.72602 4.10051 4.10051C6.72602 1.475 10.287 0 14 0C17.713 0 21.274 1.475 23.8995 4.10051C26.525 6.72602 28 10.287 28 14C28 17.713 26.525 21.274 23.8995 23.8995C21.274 26.525 17.713 28 14 28C10.287 28 6.72602 26.525 4.10051 23.8995C1.475 21.274 0 17.713 0 14ZM13.2011 19.992L21.2613 9.91573L19.8053 8.75094L12.9323 17.3395L8.064 13.2832L6.86933 14.7168L13.2011 19.9939V19.992Z" fill="#3B823E"/>
</svg>
