<svg width="24" height="27" viewBox="0 0 24 27" fill="none" xmlns="http://www.w3.org/2000/svg">
<path fill-rule="evenodd" clip-rule="evenodd" d="M3.11717 3.54107C5.20563 1.31491 8.2337 0 11.9827 0C18.1455 0 22.2319 3.55187 23.5252 8.474C23.6162 8.82041 23.5658 9.18876 23.3852 9.49801C23.2045 9.80726 22.9084 10.0321 22.562 10.123C22.2156 10.214 21.8473 10.1636 21.538 9.98295C21.2288 9.80231 21.0039 9.50621 20.913 9.15981C19.9315 5.42973 16.9224 2.70002 11.9813 2.70002C8.8952 2.70002 6.60829 3.76517 5.08818 5.38653C3.55457 7.02274 2.70002 9.33261 2.70002 11.9813V15.0188C2.70002 17.6676 3.55457 19.9774 5.08818 21.6123C6.60829 23.2363 8.8952 24.3001 11.9813 24.3001C14.2156 24.3001 15.9881 23.7817 17.349 22.9434C18.7192 22.0996 19.536 20.9805 19.7655 19.6966C20.0287 18.217 19.7047 17.2018 19.1472 16.4688C18.8409 16.0748 18.4691 15.7364 18.0483 15.4684C17.866 16.4795 17.5407 17.434 17.0493 18.1819C15.2375 20.9346 11.7734 21.1708 9.48921 20.2596C8.2526 19.7668 7.19284 18.4182 6.86344 16.9723C6.66511 16.1435 6.73168 15.2733 7.05379 14.4842C7.41155 13.6256 8.0744 12.8939 9.01806 12.3377C9.95226 11.7856 11.3401 11.5318 12.7157 11.494C13.5446 11.471 14.4437 11.5264 15.3482 11.6735C15.1592 10.796 14.8393 10.1413 14.4788 9.80511C13.8254 9.1976 12.7427 8.76965 11.6573 8.7764C10.6084 8.7845 9.71871 9.18816 9.18681 10.0387C8.99704 10.3423 8.69444 10.5581 8.34556 10.6386C7.99669 10.7191 7.63012 10.6577 7.32649 10.468C7.02287 10.2782 6.80707 9.9756 6.72656 9.62672C6.64605 9.27784 6.70743 8.91127 6.89719 8.60765C8.02715 6.80134 9.88881 6.08989 11.6398 6.07639C13.3543 6.06424 15.1201 6.71359 16.3189 7.8287C17.5312 8.9573 18.0523 10.8082 18.1873 12.4916C19.3672 13.006 20.4823 13.7606 21.2991 14.8366C22.3534 16.2271 22.807 18.0199 22.4236 20.1705C22.0321 22.3629 20.6484 24.0828 18.7651 25.2425C16.9183 26.3792 14.6395 27.0002 11.9813 27.0002C8.2337 27.0002 5.20428 25.6853 3.11852 23.4591C1.04491 21.2478 0 18.2427 0 15.0188V11.9813C0 8.7575 1.04491 5.75238 3.11852 3.54107H3.11717ZM15.4697 14.4451C14.5893 14.2545 13.6892 14.1702 12.7886 14.194C11.5858 14.2264 10.742 14.4545 10.3897 14.6624C9.87126 14.9689 9.64716 15.2807 9.54726 15.5224C9.44085 15.7934 9.4229 16.0911 9.49596 16.3729C9.66066 17.0965 10.2047 17.6392 10.4896 17.7513C12.0097 18.3588 13.9118 18.0375 14.7934 16.6983C15.1106 16.2149 15.3631 15.4022 15.4684 14.4451H15.4697Z" fill="#F8F8F8"/>
</svg>
