<svg width="11" height="23" viewBox="0 0 11 23" fill="none" xmlns="http://www.w3.org/2000/svg">
<path d="M9.15681 0C9.53521 0.029944 9.91361 0.059888 10.2914 0.0910298C10.5263 0.110793 10.76 0.135946 11 0.159302V3.81786C10.9035 3.81786 10.8134 3.81786 10.7227 3.81786C9.9762 3.83044 9.22973 3.80828 8.48671 3.86577C7.68742 3.92566 7.21658 4.35925 7.16605 5.19349C7.09772 6.32418 7.14882 7.46265 7.14882 8.62268H10.6733C10.5091 10.0001 10.3483 11.3446 10.1852 12.7088H7.13045C7.12413 12.7909 7.11437 12.855 7.11437 12.919C7.11437 16.2117 7.11437 19.5055 7.11437 22.8006C7.11437 22.8671 7.12643 22.9335 7.13217 23H3.17017C3.17419 22.9329 3.18166 22.8659 3.18166 22.7994C3.18166 19.5147 3.18166 16.2299 3.18166 12.9448V12.7244H0V8.63406H3.18281C3.18281 8.52686 3.18281 8.44062 3.18281 8.35438C3.19257 7.15003 3.16156 5.94329 3.22357 4.74193C3.2965 3.32858 3.76218 2.06913 4.83134 1.1211C5.54507 0.479104 6.39375 0.168285 7.31534 0.044916C7.38482 0.0359328 7.452 0.014972 7.52205 0H9.15681Z" fill="white"/>
</svg>
