<svg width="36" height="35" viewBox="0 0 36 35" fill="none" xmlns="http://www.w3.org/2000/svg">
<path d="M11.8565 10.3844L1.40319 11.9L1.21805 11.9377C0.937776 12.0121 0.68227 12.1595 0.477624 12.365C0.272978 12.5704 0.126524 12.8265 0.0532173 13.1071C-0.0200889 13.3876 -0.0176206 13.6826 0.0603699 13.9619C0.13836 14.2412 0.289079 14.4948 0.497134 14.6968L8.07003 22.0682L6.28412 32.4805L6.26282 32.6607C6.24566 32.9506 6.30586 33.2398 6.43723 33.4988C6.56861 33.7577 6.76645 33.9771 7.0105 34.1345C7.25455 34.2919 7.53604 34.3815 7.82614 34.3944C8.11624 34.4072 8.40454 34.3426 8.6615 34.2074L18.0105 29.2921L27.3381 34.2074L27.502 34.2828C27.7724 34.3893 28.0663 34.422 28.3536 34.3774C28.6408 34.3329 28.911 34.2127 29.1365 34.0292C29.3619 33.8458 29.5346 33.6057 29.6366 33.3335C29.7386 33.0613 29.7664 32.7669 29.7172 32.4805L27.9296 22.0682L35.5058 14.6952L35.6336 14.5559C35.8161 14.331 35.9358 14.0618 35.9805 13.7757C36.0251 13.4895 35.9931 13.1966 35.8877 12.9268C35.7823 12.6571 35.6072 12.4201 35.3804 12.24C35.1536 12.0599 34.8831 11.9431 34.5964 11.9016L24.1432 10.3844L19.4703 0.914202C19.3351 0.639819 19.1258 0.408766 18.866 0.247199C18.6063 0.0856306 18.3065 0 18.0006 0C17.6947 0 17.395 0.0856306 17.1352 0.247199C16.8755 0.408766 16.6662 0.639819 16.531 0.914202L11.8565 10.3844Z" fill="#FFC700"/>
</svg>
