<svg width="103" height="18" viewBox="0 0 103 18" fill="none" xmlns="http://www.w3.org/2000/svg">
<path d="M6.37983 5.32165L0.755043 6.09833L0.655419 6.11764C0.504607 6.15577 0.367122 6.23133 0.257004 6.33662C0.146886 6.4419 0.0680809 6.57314 0.0286357 6.71691C-0.0108096 6.86069 -0.00948145 7.01187 0.0324844 7.155C0.0744502 7.29813 0.15555 7.42809 0.267502 7.5316L4.34239 11.3092L3.38141 16.6451L3.36995 16.7375C3.36072 16.886 3.39311 17.0343 3.4638 17.167C3.5345 17.2997 3.64095 17.4121 3.77227 17.4928C3.90359 17.5734 4.05506 17.6194 4.21116 17.6259C4.36726 17.6325 4.52239 17.5994 4.66066 17.5301L9.69123 15.0112L14.7103 17.5301L14.7985 17.5687C14.944 17.6233 15.1022 17.6401 15.2567 17.6172C15.4113 17.5944 15.5567 17.5328 15.678 17.4388C15.7993 17.3448 15.8922 17.2217 15.9471 17.0823C16.002 16.9428 16.017 16.7919 15.9905 16.6451L15.0286 11.3092L19.1053 7.53076L19.174 7.45939C19.2723 7.34416 19.3367 7.2062 19.3607 7.05955C19.3847 6.9129 19.3675 6.7628 19.3108 6.62456C19.254 6.48631 19.1599 6.36486 19.0378 6.27256C18.9158 6.18027 18.7702 6.12044 18.616 6.09916L12.9912 5.32165L10.4768 0.468497C10.404 0.327885 10.2914 0.209479 10.1516 0.126681C10.0118 0.0438827 9.85054 0 9.68594 0C9.52135 0 9.36004 0.0438827 9.22027 0.126681C9.08051 0.209479 8.96788 0.327885 8.89512 0.468497L6.37983 5.32165Z" fill="#FFC700"/>
<path d="M27.5389 5.32165L21.9141 6.09833L21.8145 6.11764C21.6637 6.15577 21.5262 6.23133 21.4161 6.33662C21.306 6.4419 21.2272 6.57314 21.1877 6.71691C21.1483 6.86069 21.1496 7.01187 21.1916 7.155C21.2335 7.29813 21.3146 7.42809 21.4266 7.5316L25.5015 11.3092L24.5405 16.6451L24.529 16.7375C24.5198 16.886 24.5522 17.0343 24.6229 17.167C24.6936 17.2997 24.8 17.4121 24.9314 17.4928C25.0627 17.5734 25.2141 17.6194 25.3702 17.6259C25.5263 17.6325 25.6815 17.5994 25.8197 17.5301L30.8503 15.0112L35.8694 17.5301L35.9576 17.5687C36.1031 17.6233 36.2613 17.6401 36.4158 17.6172C36.5704 17.5944 36.7158 17.5328 36.8371 17.4388C36.9584 17.3448 37.0513 17.2217 37.1062 17.0823C37.1611 16.9428 37.1761 16.7919 37.1496 16.6451L36.1877 11.3092L40.2643 7.53076L40.3331 7.45939C40.4313 7.34416 40.4958 7.2062 40.5198 7.05955C40.5438 6.9129 40.5266 6.7628 40.4698 6.62456C40.4131 6.48631 40.3189 6.36486 40.1969 6.27256C40.0748 6.18027 39.9293 6.12044 39.775 6.09916L34.1503 5.32165L31.6358 0.468497C31.5631 0.327885 31.4505 0.209479 31.3107 0.126681C31.1709 0.0438827 31.0096 0 30.845 0C30.6804 0 30.5191 0.0438827 30.3794 0.126681C30.2396 0.209479 30.127 0.327885 30.0542 0.468497L27.5389 5.32165Z" fill="#FFC700"/>
<path d="M48.352 5.32165L42.995 6.09833L42.9001 6.11764C42.7565 6.15577 42.6256 6.23133 42.5207 6.33662C42.4158 6.4419 42.3408 6.57314 42.3032 6.71691C42.2656 6.86069 42.2669 7.01187 42.3069 7.155C42.3468 7.29813 42.4241 7.42809 42.5307 7.5316L46.4115 11.3092L45.4963 16.6451L45.4854 16.7375C45.4766 16.886 45.5075 17.0343 45.5748 17.167C45.6421 17.2997 45.7435 17.4121 45.8686 17.4928C45.9936 17.5734 46.1379 17.6194 46.2865 17.6259C46.4352 17.6325 46.583 17.5994 46.7146 17.5301L51.5057 15.0112L56.2858 17.5301L56.3697 17.5687C56.5083 17.6233 56.659 17.6401 56.8061 17.6172C56.9533 17.5944 57.0918 17.5328 57.2074 17.4388C57.3229 17.3448 57.4114 17.2217 57.4637 17.0823C57.5159 16.9428 57.5302 16.7919 57.5049 16.6451L56.5889 11.3092L60.4714 7.53076L60.5369 7.45939C60.6305 7.34416 60.6918 7.2062 60.7147 7.05955C60.7375 6.9129 60.7211 6.7628 60.6671 6.62456C60.6131 6.48631 60.5234 6.36486 60.4072 6.27256C60.2909 6.18027 60.1523 6.12044 60.0054 6.09916L54.6485 5.32165L52.2538 0.468497C52.1845 0.327885 52.0772 0.209479 51.9441 0.126681C51.811 0.0438827 51.6574 0 51.5006 0C51.3439 0 51.1902 0.0438827 51.0571 0.126681C50.924 0.209479 50.8168 0.327885 50.7475 0.468497L48.352 5.32165Z" fill="#FFC700"/>
<path d="M68.8495 5.32165L63.2247 6.09833L63.1251 6.11764C62.9743 6.15577 62.8368 6.23133 62.7267 6.33662C62.6166 6.4419 62.5378 6.57314 62.4983 6.71691C62.4589 6.86069 62.4602 7.01187 62.5022 7.155C62.5441 7.29813 62.6252 7.42809 62.7372 7.5316L66.8121 11.3092L65.8511 16.6451L65.8396 16.7375C65.8304 16.886 65.8628 17.0343 65.9335 17.167C66.0042 17.2997 66.1106 17.4121 66.242 17.4928C66.3733 17.5734 66.5247 17.6194 66.6808 17.6259C66.8369 17.6325 66.9921 17.5994 67.1303 17.5301L72.1609 15.0112L77.18 17.5301L77.2682 17.5687C77.4137 17.6233 77.5719 17.6401 77.7264 17.6172C77.881 17.5944 78.0264 17.5328 78.1477 17.4388C78.269 17.3448 78.3619 17.2217 78.4168 17.0823C78.4717 16.9428 78.4867 16.7919 78.4601 16.6451L77.4983 11.3092L81.5749 7.53076L81.6437 7.45939C81.7419 7.34416 81.8064 7.2062 81.8304 7.05955C81.8544 6.9129 81.8372 6.7628 81.7804 6.62456C81.7237 6.48631 81.6295 6.36486 81.5075 6.27256C81.3854 6.18027 81.2399 6.12044 81.0856 6.09916L75.4608 5.32165L72.9464 0.468497C72.8737 0.327885 72.7611 0.209479 72.6213 0.126681C72.4815 0.0438827 72.3202 0 72.1556 0C71.991 0 71.8297 0.0438827 71.69 0.126681C71.5502 0.209479 71.4376 0.327885 71.3648 0.468497L68.8495 5.32165Z" fill="#FFC700"/>
<path d="M90.0086 5.32165L84.3838 6.09833L84.2842 6.11764C84.1334 6.15577 83.9959 6.23133 83.8858 6.33662C83.7757 6.4419 83.6969 6.57314 83.6574 6.71691C83.618 6.86069 83.6193 7.01187 83.6613 7.155C83.7032 7.29813 83.7843 7.42809 83.8963 7.5316L87.9712 11.3092L87.0102 16.6451L86.9987 16.7375C86.9895 16.886 87.0219 17.0343 87.0926 17.167C87.1633 17.2997 87.2697 17.4121 87.401 17.4928C87.5324 17.5734 87.6838 17.6194 87.8399 17.6259C87.996 17.6325 88.1512 17.5994 88.2894 17.5301L93.32 15.0112L98.3391 17.5301L98.4273 17.5687C98.5728 17.6233 98.7309 17.6401 98.8855 17.6172C99.0401 17.5944 99.1855 17.5328 99.3068 17.4388C99.4281 17.3448 99.521 17.2217 99.5759 17.0823C99.6308 16.9428 99.6458 16.7919 99.6192 16.6451L98.6574 11.3092L102.734 7.53076L102.803 7.45939C102.901 7.34416 102.965 7.2062 102.989 7.05955C103.013 6.9129 102.996 6.7628 102.94 6.62456C102.883 6.48631 102.789 6.36486 102.667 6.27256C102.545 6.18027 102.399 6.12044 102.245 6.09916L96.6199 5.32165L94.1055 0.468497C94.0328 0.327885 93.9201 0.209479 93.7804 0.126681C93.6406 0.0438827 93.4793 0 93.3147 0C93.1501 0 92.9888 0.0438827 92.849 0.126681C92.7093 0.209479 92.5966 0.327885 92.5239 0.468497L90.0086 5.32165Z" fill="#343434" fill-opacity="0.6"/>
</svg>
