<svg width="107" height="50" viewBox="0 0 107 50" fill="none" xmlns="http://www.w3.org/2000/svg">
<g clip-path="url(#clip0_206_958)">
<path d="M24.2969 26.5625C25.4688 26.5625 26.5 25.9219 27.0312 24.9531L32.625 14.8125C33.2031 13.7812 32.4531 12.5 31.2656 12.5H8.14062L6.67188 9.375H1.5625V12.5H4.6875L10.3125 24.3594L8.20312 28.1719C7.0625 30.2656 8.5625 32.8125 10.9375 32.8125H29.6875V29.6875H10.9375L12.6563 26.5625H24.2969ZM9.625 15.625H28.6094L24.2969 23.4375H13.3281L9.625 15.625ZM10.9375 34.375C9.21875 34.375 7.82813 35.7812 7.82813 37.5C7.82813 39.2188 9.21875 40.625 10.9375 40.625C12.6562 40.625 14.0625 39.2188 14.0625 37.5C14.0625 35.7812 12.6562 34.375 10.9375 34.375ZM26.5625 34.375C24.8438 34.375 23.4531 35.7812 23.4531 37.5C23.4531 39.2188 24.8438 40.625 26.5625 40.625C28.2812 40.625 29.6875 39.2188 29.6875 37.5C29.6875 35.7812 28.2812 34.375 26.5625 34.375Z" fill="white"/>
</g>
<g clip-path="url(#clip1_206_958)">
<path d="M88.25 9.375C79.625 9.375 72.625 16.375 72.625 25C72.625 33.625 79.625 40.625 88.25 40.625C96.875 40.625 103.875 33.625 103.875 25C103.875 16.375 96.875 9.375 88.25 9.375ZM80.5469 34.8125C81.2188 33.4063 85.3125 32.0312 88.25 32.0312C91.1875 32.0312 95.2969 33.4063 95.9531 34.8125C93.8281 36.5 91.1562 37.5 88.25 37.5C85.3438 37.5 82.6719 36.5 80.5469 34.8125ZM98.1875 32.5469C95.9531 29.8281 90.5312 28.9062 88.25 28.9062C85.9688 28.9062 80.5469 29.8281 78.3125 32.5469C76.7188 30.4531 75.75 27.8438 75.75 25C75.75 18.1094 81.3594 12.5 88.25 12.5C95.1406 12.5 100.75 18.1094 100.75 25C100.75 27.8438 99.7812 30.4531 98.1875 32.5469ZM88.25 15.625C85.2188 15.625 82.7812 18.0625 82.7812 21.0938C82.7812 24.125 85.2188 26.5625 88.25 26.5625C91.2812 26.5625 93.7188 24.125 93.7188 21.0938C93.7188 18.0625 91.2812 15.625 88.25 15.625ZM88.25 23.4375C86.9531 23.4375 85.9062 22.3906 85.9062 21.0938C85.9062 19.7969 86.9531 18.75 88.25 18.75C89.5469 18.75 90.5938 19.7969 90.5938 21.0938C90.5938 22.3906 89.5469 23.4375 88.25 23.4375Z" fill="white"/>
</g>
<defs>
<clipPath id="clip0_206_958">
<rect width="37.5" height="37.5" fill="white" transform="translate(0 6.25)"/>
</clipPath>
<clipPath id="clip1_206_958">
<rect width="37.5" height="37.5" fill="white" transform="translate(69.5 6.25)"/>
</clipPath>
</defs>
</svg>
