<svg width="34" height="34" viewBox="0 0 34 34" fill="none" xmlns="http://www.w3.org/2000/svg">
<path fill-rule="evenodd" clip-rule="evenodd" d="M31.1667 17C31.1667 24.8242 24.8243 31.1667 17 31.1667C9.17579 31.1667 2.83337 24.8242 2.83337 17C2.83337 9.17575 9.17579 2.83333 17 2.83333C24.8243 2.83333 31.1667 9.17575 31.1667 17ZM21.25 12.75C21.25 13.8772 20.8023 14.9582 20.0052 15.7552C19.2082 16.5522 18.1272 17 17 17C15.8729 17 14.7919 16.5522 13.9948 15.7552C13.1978 14.9582 12.75 13.8772 12.75 12.75C12.75 11.6228 13.1978 10.5418 13.9948 9.74479C14.7919 8.94777 15.8729 8.5 17 8.5C18.1272 8.5 19.2082 8.94777 20.0052 9.74479C20.8023 10.5418 21.25 11.6228 21.25 12.75ZM17 29.0417C19.4314 29.0456 21.8065 28.3099 23.81 26.9322C24.6656 26.3443 25.0311 25.2252 24.5325 24.3142C23.5025 22.4258 21.3775 21.25 17 21.25C12.6225 21.25 10.4975 22.4258 9.46621 24.3142C8.96896 25.2252 9.33446 26.3443 10.1901 26.9322C12.1936 28.3099 14.5687 29.0456 17 29.0417Z" fill="#666666"/>
</svg>
