<svg width="69" height="63" viewBox="0 0 69 63" fill="none" xmlns="http://www.w3.org/2000/svg">
<path d="M9.11694 61.049L49.0043 24.881L67.1349 41.321" stroke="black" stroke-width="3.68664" stroke-linecap="round" stroke-linejoin="round"/>
<path d="M59.8828 1.86481H9.11706C5.11175 1.86481 1.86481 4.80898 1.86481 8.44079V54.4727C1.86481 58.1045 5.11175 61.0487 9.11706 61.0487H59.8828C63.8881 61.0487 67.1351 58.1045 67.1351 54.4727V8.44079C67.1351 4.80898 63.8881 1.86481 59.8828 1.86481Z" stroke="black" stroke-width="3.68664" stroke-linecap="round" stroke-linejoin="round"/>
<path d="M21.8095 24.881C24.8135 24.881 27.2487 22.6729 27.2487 19.949C27.2487 17.2251 24.8135 15.017 21.8095 15.017C18.8055 15.017 16.3703 17.2251 16.3703 19.949C16.3703 22.6729 18.8055 24.881 21.8095 24.881Z" stroke="black" stroke-width="3.68664" stroke-linecap="round" stroke-linejoin="round"/>
</svg>
