<svg width="52" height="57" viewBox="0 0 52 57" fill="none" xmlns="http://www.w3.org/2000/svg">
<path d="M19.9618 2.47747C23.1207 -0.82589 28.3973 -0.825889 31.5562 2.47747L35.6905 6.80084C36.7478 7.90645 38.0991 8.68668 39.5853 9.04949L45.3966 10.4682C49.8368 11.5523 52.4751 16.1219 51.1938 20.5092L49.5168 26.2513C49.0879 27.7198 49.0879 29.2802 49.5168 30.7487L51.1938 36.4908C52.4751 40.8781 49.8368 45.4477 45.3966 46.5318L39.5853 47.9505C38.0991 48.3133 36.7478 49.0935 35.6905 50.1992L31.5562 54.5225C28.3973 57.8259 23.1207 57.8259 19.9618 54.5225L15.8275 50.1992C14.7702 49.0935 13.4188 48.3133 11.9327 47.9505L6.1214 46.5318C1.68116 45.4477 -0.957103 40.8781 0.324233 36.4908L2.00122 30.7487C2.43008 29.2802 2.43008 27.7198 2.00122 26.2513L0.324232 20.5092C-0.957105 16.1219 1.68116 11.5523 6.12141 10.4682L11.9327 9.04949C13.4188 8.68668 14.7702 7.90645 15.8275 6.80083L19.9618 2.47747Z" fill="#506B52"/>
</svg>
